<?xml version="1.0" encoding="UTF-8" standalone="no"?>
<!DOCTYPE svg PUBLIC "-//W3C//DTD SVG 1.1//EN"
 "http://www.w3.org/Graphics/SVG/1.1/DTD/svg11.dtd">
<!-- Generated by graphviz version 11.0.0 (20240428.1522)
 -->
<!-- Title: dependency&#45;cruiser output Pages: 1 -->
<svg width="388pt" height="658pt"
 viewBox="0.00 0.00 387.50 658.00" xmlns="http://www.w3.org/2000/svg" xmlns:xlink="http://www.w3.org/1999/xlink">
<g id="graph0" class="graph" transform="scale(1 1) rotate(0) translate(4 654)">
<title>dependency&#45;cruiser output</title>
<polygon fill="white" stroke="none" points="-4,4 -4,-654 383.5,-654 383.5,4 -4,4"/>
<g id="clust1" class="cluster">
<title>cluster_src</title>
<path fill="#ffffff" stroke="black" stroke-width="2" d="M20,-8C20,-8 359.5,-8 359.5,-8 365.5,-8 371.5,-14 371.5,-20 371.5,-20 371.5,-630 371.5,-630 371.5,-636 365.5,-642 359.5,-642 359.5,-642 20,-642 20,-642 14,-642 8,-636 8,-630 8,-630 8,-20 8,-20 8,-14 14,-8 20,-8"/>
<text text-anchor="middle" x="189.75" y="-629.45" font-family="Helvetica,sans-Serif" font-weight="bold" font-size="9.00">src</text>
</g>
<g id="clust2" class="cluster">
<title>cluster_src/app</title>
<path fill="#ffffff" stroke="black" stroke-width="2" d="M28,-16C28,-16 208.5,-16 208.5,-16 214.5,-16 220.5,-22 220.5,-28 220.5,-28 220.5,-236 220.5,-236 220.5,-242 214.5,-248 208.5,-248 208.5,-248 28,-248 28,-248 22,-248 16,-242 16,-236 16,-236 16,-28 16,-28 16,-22 22,-16 28,-16"/>
<text text-anchor="middle" x="118.25" y="-235.45" font-family="Helvetica,sans-Serif" font-weight="bold" font-size="9.00">app</text>
</g>
<g id="clust3" class="cluster">
<title>cluster_src/app/author</title>
<path fill="#ffffff" stroke="black" stroke-width="2" d="M44,-50C44,-50 90,-50 90,-50 96,-50 102,-56 102,-62 102,-62 102,-90 102,-90 102,-96 96,-102 90,-102 90,-102 44,-102 44,-102 38,-102 32,-96 32,-90 32,-90 32,-62 32,-62 32,-56 38,-50 44,-50"/>
<text text-anchor="middle" x="67" y="-89.45" font-family="Helvetica,sans-Serif" font-weight="bold" font-size="9.00">author</text>
</g>
<g id="clust4" class="cluster">
<title>cluster_src/app/posts</title>
<path fill="#ffffff" stroke="black" stroke-width="2" d="M36,-110C36,-110 98,-110 98,-110 104,-110 110,-116 110,-122 110,-122 110,-184 110,-184 110,-190 104,-196 98,-196 98,-196 36,-196 36,-196 30,-196 24,-190 24,-184 24,-184 24,-122 24,-122 24,-116 30,-110 36,-110"/>
<text text-anchor="middle" x="67" y="-183.45" font-family="Helvetica,sans-Serif" font-weight="bold" font-size="9.00">posts</text>
</g>
<g id="clust5" class="cluster">
<title>cluster_src/app/posts/[slug]</title>
<path fill="#ffffff" stroke="black" stroke-width="2" d="M44,-118C44,-118 90,-118 90,-118 96,-118 102,-124 102,-130 102,-130 102,-158 102,-158 102,-164 96,-170 90,-170 90,-170 44,-170 44,-170 38,-170 32,-164 32,-158 32,-158 32,-130 32,-130 32,-124 38,-118 44,-118"/>
<text text-anchor="middle" x="67" y="-157.45" font-family="Helvetica,sans-Serif" font-weight="bold" font-size="9.00">[slug]</text>
</g>
<g id="clust6" class="cluster">
<title>cluster_src/styles</title>
<path fill="#ffffff" stroke="black" stroke-width="2" d="M130,-504C130,-504 345.62,-504 345.62,-504 351.62,-504 357.62,-510 357.62,-516 357.62,-516 357.62,-544 357.62,-544 357.62,-550 351.62,-556 345.62,-556 345.62,-556 130,-556 130,-556 124,-556 118,-550 118,-544 118,-544 118,-516 118,-516 118,-510 124,-504 130,-504"/>
<text text-anchor="middle" x="237.81" y="-543.45" font-family="Helvetica,sans-Serif" font-weight="bold" font-size="9.00">styles</text>
</g>
<g id="clust7" class="cluster">
<title>cluster_src/ui</title>
<path fill="#ffffff" stroke="black" stroke-width="2" d="M142.62,-256C142.62,-256 351.5,-256 351.5,-256 357.5,-256 363.5,-262 363.5,-268 363.5,-268 363.5,-484 363.5,-484 363.5,-490 357.5,-496 351.5,-496 351.5,-496 142.62,-496 142.62,-496 136.62,-496 130.62,-490 130.62,-484 130.62,-484 130.62,-268 130.62,-268 130.62,-262 136.62,-256 142.62,-256"/>
<text text-anchor="middle" x="247.06" y="-483.45" font-family="Helvetica,sans-Serif" font-weight="bold" font-size="9.00">ui</text>
</g>
<g id="clust8" class="cluster">
<title>cluster_src/ui/components</title>
<path fill="#ffffff" stroke="black" stroke-width="2" d="M257.25,-328C257.25,-328 343.5,-328 343.5,-328 349.5,-328 355.5,-334 355.5,-340 355.5,-340 355.5,-458 355.5,-458 355.5,-464 349.5,-470 343.5,-470 343.5,-470 257.25,-470 257.25,-470 251.25,-470 245.25,-464 245.25,-458 245.25,-458 245.25,-340 245.25,-340 245.25,-334 251.25,-328 257.25,-328"/>
<text text-anchor="middle" x="300.38" y="-457.45" font-family="Helvetica,sans-Serif" font-weight="bold" font-size="9.00">components</text>
</g>
<g id="clust9" class="cluster">
<title>cluster_src/ui/components/layout</title>
<path fill="#ffffff" stroke="black" stroke-width="2" d="M265.25,-392C265.25,-392 335.5,-392 335.5,-392 341.5,-392 347.5,-398 347.5,-404 347.5,-404 347.5,-432 347.5,-432 347.5,-438 341.5,-444 335.5,-444 335.5,-444 265.25,-444 265.25,-444 259.25,-444 253.25,-438 253.25,-432 253.25,-432 253.25,-404 253.25,-404 253.25,-398 259.25,-392 265.25,-392"/>
<text text-anchor="middle" x="300.38" y="-431.45" font-family="Helvetica,sans-Serif" font-weight="bold" font-size="9.00">layout</text>
</g>
<g id="clust10" class="cluster">
<title>cluster_src/ui/view</title>
<path fill="#ffffff" stroke="black" stroke-width="2" d="M150.62,-264C150.62,-264 212.62,-264 212.62,-264 218.62,-264 224.62,-270 224.62,-276 224.62,-276 224.62,-458 224.62,-458 224.62,-464 218.62,-470 212.62,-470 212.62,-470 150.62,-470 150.62,-470 144.62,-470 138.62,-464 138.62,-458 138.62,-458 138.62,-276 138.62,-276 138.62,-270 144.62,-264 150.62,-264"/>
<text text-anchor="middle" x="181.62" y="-457.45" font-family="Helvetica,sans-Serif" font-weight="bold" font-size="9.00">view</text>
</g>
<g id="clust11" class="cluster">
<title>cluster_src/ui/view/author</title>
<path fill="#ffffff" stroke="black" stroke-width="2" d="M158.62,-332C158.62,-332 204.62,-332 204.62,-332 210.62,-332 216.62,-338 216.62,-344 216.62,-344 216.62,-372 216.62,-372 216.62,-378 210.62,-384 204.62,-384 204.62,-384 158.62,-384 158.62,-384 152.62,-384 146.62,-378 146.62,-372 146.62,-372 146.62,-344 146.62,-344 146.62,-338 152.62,-332 158.62,-332"/>
<text text-anchor="middle" x="181.62" y="-371.45" font-family="Helvetica,sans-Serif" font-weight="bold" font-size="9.00">author</text>
</g>
<g id="clust12" class="cluster">
<title>cluster_src/ui/view/home</title>
<path fill="#ffffff" stroke="black" stroke-width="2" d="M158.62,-272C158.62,-272 204.62,-272 204.62,-272 210.62,-272 216.62,-278 216.62,-284 216.62,-284 216.62,-312 216.62,-312 216.62,-318 210.62,-324 204.62,-324 204.62,-324 158.62,-324 158.62,-324 152.62,-324 146.62,-318 146.62,-312 146.62,-312 146.62,-284 146.62,-284 146.62,-278 152.62,-272 158.62,-272"/>
<text text-anchor="middle" x="181.62" y="-311.45" font-family="Helvetica,sans-Serif" font-weight="bold" font-size="9.00">home</text>
</g>
<g id="clust13" class="cluster">
<title>cluster_src/ui/view/posts</title>
<path fill="#ffffff" stroke="black" stroke-width="2" d="M158.62,-392C158.62,-392 204.62,-392 204.62,-392 210.62,-392 216.62,-398 216.62,-404 216.62,-404 216.62,-432 216.62,-432 216.62,-438 210.62,-444 204.62,-444 204.62,-444 158.62,-444 158.62,-444 152.62,-444 146.62,-438 146.62,-432 146.62,-432 146.62,-404 146.62,-404 146.62,-398 152.62,-392 158.62,-392"/>
<text text-anchor="middle" x="181.62" y="-431.45" font-family="Helvetica,sans-Serif" font-weight="bold" font-size="9.00">posts</text>
</g>
<g id="clust14" class="cluster">
<title>cluster_src/utils</title>
<path fill="#ffffff" stroke="black" stroke-width="2" d="M140.5,-564C140.5,-564 222.75,-564 222.75,-564 228.75,-564 234.75,-570 234.75,-576 234.75,-576 234.75,-604 234.75,-604 234.75,-610 228.75,-616 222.75,-616 222.75,-616 140.5,-616 140.5,-616 134.5,-616 128.5,-610 128.5,-604 128.5,-604 128.5,-576 128.5,-576 128.5,-570 134.5,-564 140.5,-564"/>
<text text-anchor="middle" x="181.62" y="-603.45" font-family="Helvetica,sans-Serif" font-weight="bold" font-size="9.00">utils</text>
</g>
<!-- src/app/author/page.tsx -->
<g id="node1" class="node">
<title>src/app/author/page.tsx</title>
<g id="a_node1"><a xlink:href="src/app/author/page.tsx" xlink:title="page.tsx">
<path fill="#bbfeff" stroke="black" d="M88.08,-75.88C88.08,-75.88 45.92,-75.88 45.92,-75.88 42.96,-75.88 40,-72.92 40,-69.96 40,-69.96 40,-64.04 40,-64.04 40,-61.08 42.96,-58.12 45.92,-58.12 45.92,-58.12 88.08,-58.12 88.08,-58.12 91.04,-58.12 94,-61.08 94,-64.04 94,-64.04 94,-69.96 94,-69.96 94,-72.92 91.04,-75.88 88.08,-75.88"/>
<text text-anchor="start" x="49.75" y="-63.33" font-family="Helvetica,sans-Serif" font-size="9.00">page.tsx</text>
</a>
</g>
</g>
<!-- src/ui/view/author/index.tsx -->
<g id="node2" class="node">
<title>src/ui/view/author/index.tsx</title>
<g id="a_node2"><a xlink:href="src/ui/view/author/index.tsx" xlink:title="index.tsx">
<path fill="#bbfeff" stroke="black" d="M202.71,-357.88C202.71,-357.88 160.54,-357.88 160.54,-357.88 157.58,-357.88 154.62,-354.92 154.62,-351.96 154.62,-351.96 154.62,-346.04 154.62,-346.04 154.62,-343.08 157.58,-340.12 160.54,-340.12 160.54,-340.12 202.71,-340.12 202.71,-340.12 205.67,-340.12 208.62,-343.08 208.62,-346.04 208.62,-346.04 208.62,-351.96 208.62,-351.96 208.62,-354.92 205.67,-357.88 202.71,-357.88"/>
<text text-anchor="start" x="163.62" y="-345.32" font-family="Helvetica,sans-Serif" font-size="9.00">index.tsx</text>
</a>
</g>
</g>
<!-- src/app/author/page.tsx&#45;&gt;src/ui/view/author/index.tsx -->
<g id="edge1" class="edge">
<title>src/app/author/page.tsx&#45;&gt;src/ui/view/author/index.tsx</title>
<path fill="none" stroke="#000000" stroke-width="2" stroke-opacity="0.200000" d="M79.69,-76.24C89.78,-85 103.7,-99.15 110,-115 118.71,-136.91 104.01,-308.03 118,-327 124.57,-335.91 135.03,-341.23 145.54,-344.4"/>
<polygon fill="#000000" fill-opacity="0.200000" stroke="#000000" stroke-width="2" stroke-opacity="0.200000" points="145.02,-346.44 151.35,-345.86 146.04,-342.37 145.02,-346.44"/>
</g>
<!-- src/app/globals.css -->
<g id="node3" class="node">
<title>src/app/globals.css</title>
<g id="a_node3"><a xlink:href="src/app/globals.css" xlink:title="globals.css">
<path fill="#ffffcc" stroke="black" d="M206.58,-221.88C206.58,-221.88 156.67,-221.88 156.67,-221.88 153.71,-221.88 150.75,-218.92 150.75,-215.96 150.75,-215.96 150.75,-210.04 150.75,-210.04 150.75,-207.08 153.71,-204.12 156.67,-204.12 156.67,-204.12 206.58,-204.12 206.58,-204.12 209.54,-204.12 212.5,-207.08 212.5,-210.04 212.5,-210.04 212.5,-215.96 212.5,-215.96 212.5,-218.92 209.54,-221.88 206.58,-221.88"/>
<text text-anchor="start" x="158.75" y="-209.32" font-family="Helvetica,sans-Serif" font-size="9.00">globals.css</text>
</a>
</g>
</g>
<!-- src/app/layout.tsx -->
<g id="node4" class="node">
<title>src/app/layout.tsx</title>
<g id="a_node4"><a xlink:href="src/app/layout.tsx" xlink:title="layout.tsx">
<path fill="#bbfeff" stroke="black" d="M88.21,-221.88C88.21,-221.88 45.79,-221.88 45.79,-221.88 42.83,-221.88 39.88,-218.92 39.88,-215.96 39.88,-215.96 39.88,-210.04 39.88,-210.04 39.88,-207.08 42.83,-204.12 45.79,-204.12 45.79,-204.12 88.21,-204.12 88.21,-204.12 91.17,-204.12 94.12,-207.08 94.12,-210.04 94.12,-210.04 94.12,-215.96 94.12,-215.96 94.12,-218.92 91.17,-221.88 88.21,-221.88"/>
<text text-anchor="start" x="47.88" y="-209.32" font-family="Helvetica,sans-Serif" font-size="9.00">layout.tsx</text>
</a>
</g>
</g>
<!-- src/app/layout.tsx&#45;&gt;src/app/globals.css -->
<g id="edge2" class="edge">
<title>src/app/layout.tsx&#45;&gt;src/app/globals.css</title>
<path fill="none" stroke="#000000" stroke-width="2" stroke-opacity="0.200000" d="M94.41,-213C108.43,-213 125.94,-213 141.5,-213"/>
<polygon fill="#000000" fill-opacity="0.200000" stroke="#000000" stroke-width="2" stroke-opacity="0.200000" points="141.38,-215.1 147.38,-213 141.38,-210.9 141.38,-215.1"/>
</g>
<!-- src/styles/AntdThemeProvider.tsx -->
<g id="node5" class="node">
<title>src/styles/AntdThemeProvider.tsx</title>
<g id="a_node5"><a xlink:href="src/styles/AntdThemeProvider.tsx" xlink:title="AntdThemeProvider.tsx">
<path fill="#bbfeff" stroke="black" d="M231.33,-529.88C231.33,-529.88 131.92,-529.88 131.92,-529.88 128.96,-529.88 126,-526.92 126,-523.96 126,-523.96 126,-518.04 126,-518.04 126,-515.08 128.96,-512.12 131.92,-512.12 131.92,-512.12 231.33,-512.12 231.33,-512.12 234.29,-512.12 237.25,-515.08 237.25,-518.04 237.25,-518.04 237.25,-523.96 237.25,-523.96 237.25,-526.92 234.29,-529.88 231.33,-529.88"/>
<text text-anchor="start" x="134" y="-517.33" font-family="Helvetica,sans-Serif" font-size="9.00">AntdThemeProvider.tsx</text>
</a>
</g>
</g>
<!-- src/app/layout.tsx&#45;&gt;src/styles/AntdThemeProvider.tsx -->
<g id="edge3" class="edge">
<title>src/app/layout.tsx&#45;&gt;src/styles/AntdThemeProvider.tsx</title>
<path fill="none" stroke="#000000" stroke-width="2" stroke-opacity="0.200000" d="M68.7,-222.26C72.07,-264.52 87.6,-438.96 118,-483 125.33,-493.61 136.67,-501.78 147.71,-507.77"/>
<polygon fill="#000000" fill-opacity="0.200000" stroke="#000000" stroke-width="2" stroke-opacity="0.200000" points="146.61,-509.57 152.92,-510.4 148.5,-505.82 146.61,-509.57"/>
</g>
<!-- src/ui/components/layout/BaseLayout.tsx -->
<g id="node6" class="node">
<title>src/ui/components/layout/BaseLayout.tsx</title>
<g id="a_node6"><a xlink:href="src/ui/components/layout/BaseLayout.tsx" xlink:title="BaseLayout.tsx">
<path fill="#bbfeff" stroke="black" d="M333.58,-417.88C333.58,-417.88 267.17,-417.88 267.17,-417.88 264.21,-417.88 261.25,-414.92 261.25,-411.96 261.25,-411.96 261.25,-406.04 261.25,-406.04 261.25,-403.08 264.21,-400.12 267.17,-400.12 267.17,-400.12 333.58,-400.12 333.58,-400.12 336.54,-400.12 339.5,-403.08 339.5,-406.04 339.5,-406.04 339.5,-411.96 339.5,-411.96 339.5,-414.92 336.54,-417.88 333.58,-417.88"/>
<text text-anchor="start" x="269.25" y="-405.32" font-family="Helvetica,sans-Serif" font-size="9.00">BaseLayout.tsx</text>
</a>
</g>
</g>
<!-- src/app/layout.tsx&#45;&gt;src/ui/components/layout/BaseLayout.tsx -->
<g id="edge4" class="edge">
<title>src/app/layout.tsx&#45;&gt;src/ui/components/layout/BaseLayout.tsx</title>
<path fill="none" stroke="#000000" stroke-width="2" stroke-opacity="0.200000" d="M68.48,-222.21C70.78,-261.93 81.99,-417.87 118,-447 159.21,-480.33 186.23,-461.37 237.25,-447 253.42,-442.45 269.55,-432.38 281.31,-423.75"/>
<polygon fill="#000000" fill-opacity="0.200000" stroke="#000000" stroke-width="2" stroke-opacity="0.200000" points="282.47,-425.51 285.97,-420.2 279.92,-422.17 282.47,-425.51"/>
</g>
<!-- src/utils/MergeProvider.tsx -->
<g id="node7" class="node">
<title>src/utils/MergeProvider.tsx</title>
<g id="a_node7"><a xlink:href="src/utils/MergeProvider.tsx" xlink:title="MergeProvider.tsx">
<path fill="#bbfeff" stroke="black" d="M220.83,-589.88C220.83,-589.88 142.42,-589.88 142.42,-589.88 139.46,-589.88 136.5,-586.92 136.5,-583.96 136.5,-583.96 136.5,-578.04 136.5,-578.04 136.5,-575.08 139.46,-572.12 142.42,-572.12 142.42,-572.12 220.83,-572.12 220.83,-572.12 223.79,-572.12 226.75,-575.08 226.75,-578.04 226.75,-578.04 226.75,-583.96 226.75,-583.96 226.75,-586.92 223.79,-589.88 220.83,-589.88"/>
<text text-anchor="start" x="144.5" y="-577.33" font-family="Helvetica,sans-Serif" font-size="9.00">MergeProvider.tsx</text>
</a>
</g>
</g>
<!-- src/app/layout.tsx&#45;&gt;src/utils/MergeProvider.tsx -->
<g id="edge5" class="edge">
<title>src/app/layout.tsx&#45;&gt;src/utils/MergeProvider.tsx</title>
<path fill="none" stroke="#000000" stroke-width="2" stroke-opacity="0.200000" d="M68.08,-222.27C68.7,-271.84 73.96,-505.44 118,-559 120.9,-562.53 124.4,-565.49 128.25,-567.97"/>
<polygon fill="#000000" fill-opacity="0.200000" stroke="#000000" stroke-width="2" stroke-opacity="0.200000" points="127.07,-569.73 133.35,-570.75 129.08,-566.04 127.07,-569.73"/>
</g>
<!-- src/styles/antdThemeConfig.ts -->
<g id="node12" class="node">
<title>src/styles/antdThemeConfig.ts</title>
<g id="a_node12"><a xlink:href="src/styles/antdThemeConfig.ts" xlink:title="antdThemeConfig.ts">
<path fill="#ddfeff" stroke="black" d="M343.71,-529.88C343.71,-529.88 257.04,-529.88 257.04,-529.88 254.08,-529.88 251.12,-526.92 251.12,-523.96 251.12,-523.96 251.12,-518.04 251.12,-518.04 251.12,-515.08 254.08,-512.12 257.04,-512.12 257.04,-512.12 343.71,-512.12 343.71,-512.12 346.67,-512.12 349.62,-515.08 349.62,-518.04 349.62,-518.04 349.62,-523.96 349.62,-523.96 349.62,-526.92 346.67,-529.88 343.71,-529.88"/>
<text text-anchor="start" x="259.12" y="-517.33" font-family="Helvetica,sans-Serif" font-size="9.00">antdThemeConfig.ts</text>
</a>
</g>
</g>
<!-- src/styles/AntdThemeProvider.tsx&#45;&gt;src/styles/antdThemeConfig.ts -->
<g id="edge8" class="edge">
<title>src/styles/AntdThemeProvider.tsx&#45;&gt;src/styles/antdThemeConfig.ts</title>
<path fill="none" stroke="#000000" stroke-width="2" stroke-opacity="0.200000" d="M237.58,-521C238.95,-521 240.32,-521 241.69,-521"/>
<polygon fill="#000000" fill-opacity="0.200000" stroke="#000000" stroke-width="2" stroke-opacity="0.200000" points="241.66,-523.1 247.66,-521 241.66,-518.9 241.66,-523.1"/>
</g>
<!-- src/app/page.tsx -->
<g id="node8" class="node">
<title>src/app/page.tsx</title>
<g id="a_node8"><a xlink:href="src/app/page.tsx" xlink:title="page.tsx">
<path fill="#bbfeff" stroke="black" d="M88.08,-41.88C88.08,-41.88 45.92,-41.88 45.92,-41.88 42.96,-41.88 40,-38.92 40,-35.96 40,-35.96 40,-30.04 40,-30.04 40,-27.08 42.96,-24.12 45.92,-24.12 45.92,-24.12 88.08,-24.12 88.08,-24.12 91.04,-24.12 94,-27.08 94,-30.04 94,-30.04 94,-35.96 94,-35.96 94,-38.92 91.04,-41.88 88.08,-41.88"/>
<text text-anchor="start" x="49.75" y="-29.32" font-family="Helvetica,sans-Serif" font-size="9.00">page.tsx</text>
</a>
</g>
</g>
<!-- src/ui/view/home/index.tsx -->
<g id="node9" class="node">
<title>src/ui/view/home/index.tsx</title>
<g id="a_node9"><a xlink:href="src/ui/view/home/index.tsx" xlink:title="index.tsx">
<path fill="#bbfeff" stroke="black" d="M202.71,-297.88C202.71,-297.88 160.54,-297.88 160.54,-297.88 157.58,-297.88 154.62,-294.92 154.62,-291.96 154.62,-291.96 154.62,-286.04 154.62,-286.04 154.62,-283.08 157.58,-280.12 160.54,-280.12 160.54,-280.12 202.71,-280.12 202.71,-280.12 205.67,-280.12 208.62,-283.08 208.62,-286.04 208.62,-286.04 208.62,-291.96 208.62,-291.96 208.62,-294.92 205.67,-297.88 202.71,-297.88"/>
<text text-anchor="start" x="163.62" y="-285.32" font-family="Helvetica,sans-Serif" font-size="9.00">index.tsx</text>
</a>
</g>
</g>
<!-- src/app/page.tsx&#45;&gt;src/ui/view/home/index.tsx -->
<g id="edge6" class="edge">
<title>src/app/page.tsx&#45;&gt;src/ui/view/home/index.tsx</title>
<path fill="none" stroke="#000000" stroke-width="2" stroke-opacity="0.200000" d="M94.15,-36.48C100.27,-38.56 106.12,-41.84 110,-47 123.62,-65.14 106.49,-231.45 118,-251 124.44,-261.93 135.37,-270.12 146.32,-276.03"/>
<polygon fill="#000000" fill-opacity="0.200000" stroke="#000000" stroke-width="2" stroke-opacity="0.200000" points="145.21,-277.83 151.52,-278.6 147.07,-274.06 145.21,-277.83"/>
</g>
<!-- src/ui/components/PostCard.tsx -->
<g id="node14" class="node">
<title>src/ui/components/PostCard.tsx</title>
<g id="a_node14"><a xlink:href="src/ui/components/PostCard.tsx" xlink:title="PostCard.tsx">
<path fill="#bbfeff" stroke="black" d="M328.33,-353.88C328.33,-353.88 272.42,-353.88 272.42,-353.88 269.46,-353.88 266.5,-350.92 266.5,-347.96 266.5,-347.96 266.5,-342.04 266.5,-342.04 266.5,-339.08 269.46,-336.12 272.42,-336.12 272.42,-336.12 328.33,-336.12 328.33,-336.12 331.29,-336.12 334.25,-339.08 334.25,-342.04 334.25,-342.04 334.25,-347.96 334.25,-347.96 334.25,-350.92 331.29,-353.88 328.33,-353.88"/>
<text text-anchor="start" x="274.5" y="-341.32" font-family="Helvetica,sans-Serif" font-size="9.00">PostCard.tsx</text>
</a>
</g>
</g>
<!-- src/ui/view/home/index.tsx&#45;&gt;src/ui/components/PostCard.tsx -->
<g id="edge9" class="edge">
<title>src/ui/view/home/index.tsx&#45;&gt;src/ui/components/PostCard.tsx</title>
<path fill="none" stroke="#000000" stroke-width="2" stroke-opacity="0.200000" d="M202.17,-298.37C221.31,-307.55 250.64,-321.62 272.08,-331.91"/>
<polygon fill="#000000" fill-opacity="0.200000" stroke="#000000" stroke-width="2" stroke-opacity="0.200000" points="271.11,-333.77 277.43,-334.47 272.93,-329.99 271.11,-333.77"/>
</g>
<!-- src/app/posts/[slug]/page.tsx -->
<g id="node10" class="node">
<title>src/app/posts/[slug]/page.tsx</title>
<g id="a_node10"><a xlink:href="src/app/posts/[slug]/page.tsx" xlink:title="page.tsx">
<path fill="#bbfeff" stroke="black" d="M88.08,-143.88C88.08,-143.88 45.92,-143.88 45.92,-143.88 42.96,-143.88 40,-140.92 40,-137.96 40,-137.96 40,-132.04 40,-132.04 40,-129.08 42.96,-126.12 45.92,-126.12 45.92,-126.12 88.08,-126.12 88.08,-126.12 91.04,-126.12 94,-129.08 94,-132.04 94,-132.04 94,-137.96 94,-137.96 94,-140.92 91.04,-143.88 88.08,-143.88"/>
<text text-anchor="start" x="49.75" y="-131.32" font-family="Helvetica,sans-Serif" font-size="9.00">page.tsx</text>
</a>
</g>
</g>
<!-- src/ui/view/posts/detail.tsx -->
<g id="node11" class="node">
<title>src/ui/view/posts/detail.tsx</title>
<g id="a_node11"><a xlink:href="src/ui/view/posts/detail.tsx" xlink:title="detail.tsx">
<path fill="#bbfeff" stroke="black" d="M202.71,-417.88C202.71,-417.88 160.54,-417.88 160.54,-417.88 157.58,-417.88 154.62,-414.92 154.62,-411.96 154.62,-411.96 154.62,-406.04 154.62,-406.04 154.62,-403.08 157.58,-400.12 160.54,-400.12 160.54,-400.12 202.71,-400.12 202.71,-400.12 205.67,-400.12 208.62,-403.08 208.62,-406.04 208.62,-406.04 208.62,-411.96 208.62,-411.96 208.62,-414.92 205.67,-417.88 202.71,-417.88"/>
<text text-anchor="start" x="163.62" y="-405.32" font-family="Helvetica,sans-Serif" font-size="9.00">detail.tsx</text>
</a>
</g>
</g>
<!-- src/app/posts/[slug]/page.tsx&#45;&gt;src/ui/view/posts/detail.tsx -->
<g id="edge7" class="edge">
<title>src/app/posts/[slug]/page.tsx&#45;&gt;src/ui/view/posts/detail.tsx</title>
<path fill="none" stroke="#000000" stroke-width="2" stroke-opacity="0.200000" d="M94.13,-137.82C100.25,-139.75 106.11,-142.9 110,-148 126.12,-169.12 102.28,-365.58 118,-387 124.55,-395.93 135.01,-401.25 145.52,-404.42"/>
<polygon fill="#000000" fill-opacity="0.200000" stroke="#000000" stroke-width="2" stroke-opacity="0.200000" points="145,-406.46 151.33,-405.87 146.02,-402.38 145,-406.46"/>
</g>
<!-- src/ui/components/CommentCard.tsx -->
<g id="node13" class="node">
<title>src/ui/components/CommentCard.tsx</title>
<g id="a_node13"><a xlink:href="src/ui/components/CommentCard.tsx" xlink:title="CommentCard.tsx">
<path fill="#bbfeff" stroke="black" d="M339.21,-383.88C339.21,-383.88 261.54,-383.88 261.54,-383.88 258.58,-383.88 255.62,-380.92 255.62,-377.96 255.62,-377.96 255.62,-372.04 255.62,-372.04 255.62,-369.08 258.58,-366.12 261.54,-366.12 261.54,-366.12 339.21,-366.12 339.21,-366.12 342.17,-366.12 345.12,-369.08 345.12,-372.04 345.12,-372.04 345.12,-377.96 345.12,-377.96 345.12,-380.92 342.17,-383.88 339.21,-383.88"/>
<text text-anchor="start" x="263.62" y="-371.32" font-family="Helvetica,sans-Serif" font-size="9.00">CommentCard.tsx</text>
</a>
</g>
</g>
<!-- src/ui/view/posts/detail.tsx&#45;&gt;src/ui/components/CommentCard.tsx -->
<g id="edge10" class="edge">
<title>src/ui/view/posts/detail.tsx&#45;&gt;src/ui/components/CommentCard.tsx</title>
<path fill="none" stroke="#000000" stroke-width="2" stroke-opacity="0.200000" d="M209.04,-400.2C220.17,-396.59 233.3,-392.45 245.25,-389 247.95,-388.22 250.74,-387.44 253.56,-386.66"/>
<polygon fill="#000000" fill-opacity="0.200000" stroke="#000000" stroke-width="2" stroke-opacity="0.200000" points="253.87,-388.75 259.11,-385.16 252.77,-384.7 253.87,-388.75"/>
</g>
</g>
</svg>
